<svg width="265" height="43" viewBox="0 0 265 43" fill="none" xmlns="http://www.w3.org/2000/svg">
<path d="M8.28094 2.88V12H12.9009V14.1H8.28094V32.4C8.28094 32.88 8.30094 33.44 8.34094 34.08C8.38094 34.68 8.48094 35.26 8.64094 35.82C8.84094 36.38 9.12094 36.86 9.48094 37.26C9.88094 37.62 10.4209 37.8 11.1009 37.8C12.1809 37.8 13.2009 37.26 14.1609 36.18C15.1609 35.1 15.9409 33.46 16.5009 31.26H18.7209C18.0409 33.78 17.3009 35.78 16.5009 37.26C15.7409 38.7 14.9409 39.8 14.1009 40.56C13.2609 41.32 12.4209 41.8 11.5809 42C10.7809 42.24 10.0409 42.36 9.36094 42.36C7.92094 42.36 6.74094 42.1 5.82094 41.58C4.90094 41.02 4.18094 40.32 3.66094 39.48C3.14094 38.64 2.78094 37.72 2.58094 36.72C2.38094 35.68 2.28094 34.66 2.28094 33.66V14.1H0.240938V12H2.28094V3.72L8.28094 2.88ZM22.4006 -2.86102e-06V16.56C23.0006 15.48 23.6006 14.62 24.2006 13.98C24.8406 13.3 25.4806 12.8 26.1206 12.48C26.7606 12.16 27.3606 11.96 27.9206 11.88C28.5206 11.76 29.0806 11.7 29.6006 11.7C31.4006 11.7 32.8406 12.04 33.9206 12.72C35.0406 13.4 35.8806 14.28 36.4406 15.36C37.0006 16.4 37.3606 17.56 37.5206 18.84C37.7206 20.08 37.8206 21.28 37.8206 22.44C37.8206 23.16 37.8006 23.96 37.7606 24.84C37.7206 25.68 37.6806 26.56 37.6406 27.48C37.6006 28.36 37.5606 29.26 37.5206 30.18C37.4806 31.06 37.4606 31.88 37.4606 32.64C37.4606 32.96 37.4806 33.42 37.5206 34.02C37.5606 34.58 37.6606 35.14 37.8206 35.7C37.9806 36.26 38.2406 36.76 38.6006 37.2C38.9606 37.6 39.4806 37.8 40.1606 37.8C41.0806 37.8 41.9006 37.28 42.6206 36.24C43.3806 35.2 44.0006 33.54 44.4806 31.26H46.7006C46.2606 33.78 45.7006 35.78 45.0206 37.26C44.3406 38.7 43.6206 39.8 42.8606 40.56C42.1006 41.32 41.3406 41.8 40.5806 42C39.8206 42.24 39.1206 42.36 38.4806 42.36C37.2006 42.36 36.1206 42.12 35.2406 41.64C34.3606 41.12 33.6406 40.44 33.0806 39.6C32.5206 38.76 32.1006 37.78 31.8206 36.66C31.5806 35.54 31.4606 34.38 31.4606 33.18C31.4606 32.82 31.4606 32.16 31.4606 31.2C31.5006 30.2 31.5206 29.14 31.5206 28.02C31.5606 26.9 31.5806 25.84 31.5806 24.84C31.6206 23.84 31.6406 23.14 31.6406 22.74C31.6406 21.46 31.5406 20.4 31.3406 19.56C31.1406 18.72 30.8606 18.06 30.5006 17.58C30.1406 17.1 29.7206 16.76 29.2406 16.56C28.8006 16.36 28.3206 16.26 27.8006 16.26C26.5606 16.26 25.4806 16.76 24.5606 17.76C23.6806 18.76 22.9606 20.44 22.4006 22.8V42H16.4006V0.839997L22.4006 -2.86102e-06ZM55.3884 11.7C56.9484 11.7 58.2884 11.94 59.4084 12.42C60.5284 12.9 61.4484 13.58 62.1684 14.46C62.8884 15.3 63.4484 16.3 63.8484 17.46C64.2884 18.62 64.6084 19.86 64.8084 21.18H65.1684C66.8484 21.18 68.3884 20.84 69.7884 20.16C71.1884 19.48 72.3884 18.62 73.3884 17.58L74.2884 19.2C73.4884 20.48 72.2084 21.54 70.4484 22.38C68.7284 23.22 66.9484 23.8 65.1084 24.12C65.1084 24.52 65.1084 24.92 65.1084 25.32C65.1484 25.72 65.1684 26.14 65.1684 26.58C65.1684 31.5 64.2684 35.36 62.4684 38.16C60.6684 40.96 58.1484 42.36 54.9084 42.36C53.5884 42.36 52.2484 42.12 50.8884 41.64C49.5684 41.16 48.3684 40.36 47.2884 39.24C46.2084 38.12 45.3284 36.68 44.6484 34.92C44.0084 33.16 43.6884 30.98 43.6884 28.38C43.6884 26.62 43.8684 24.76 44.2284 22.8C44.6284 20.84 45.2684 19.04 46.1484 17.4C47.0684 15.76 48.2684 14.4 49.7484 13.32C51.2684 12.24 53.1484 11.7 55.3884 11.7ZM55.9884 37.8C58.1084 37.8 59.6684 36.76 60.6684 34.68C61.6684 32.56 62.1684 29.58 62.1684 25.74C62.1684 25.5 62.1684 25.26 62.1684 25.02C62.1684 24.78 62.1484 24.54 62.1084 24.3C60.9484 24.22 60.1084 23.96 59.5884 23.52C59.1084 23.08 58.8684 22.34 58.8684 21.3C58.8684 20.38 59.0684 19.74 59.4684 19.38C59.8684 18.98 60.4684 18.76 61.2684 18.72C60.7884 17.32 60.1684 16.36 59.4084 15.84C58.6884 15.28 57.8684 15 56.9484 15C55.7084 15 54.6484 15.42 53.7684 16.26C52.9284 17.06 52.2284 18.1 51.6684 19.38C51.1484 20.66 50.7684 22.08 50.5284 23.64C50.2884 25.16 50.1684 26.66 50.1684 28.14C50.1684 30.1 50.3484 31.7 50.7084 32.94C51.0684 34.18 51.5284 35.16 52.0884 35.88C52.6484 36.6 53.2684 37.1 53.9484 37.38C54.6284 37.66 55.3084 37.8 55.9884 37.8ZM75.6052 2.88V12H80.2252V14.1H75.6052V32.4C75.6052 32.88 75.6252 33.44 75.6652 34.08C75.7052 34.68 75.8052 35.26 75.9652 35.82C76.1652 36.38 76.4452 36.86 76.8052 37.26C77.2052 37.62 77.7452 37.8 78.4252 37.8C79.5052 37.8 80.5252 37.26 81.4852 36.18C82.4852 35.1 83.2652 33.46 83.8252 31.26H86.0452C85.3652 33.78 84.6252 35.78 83.8252 37.26C83.0652 38.7 82.2652 39.8 81.4252 40.56C80.5852 41.32 79.7452 41.8 78.9052 42C78.1052 42.24 77.3652 42.36 76.6852 42.36C75.2452 42.36 74.0652 42.1 73.1452 41.58C72.2252 41.02 71.5052 40.32 70.9852 39.48C70.4652 38.64 70.1052 37.72 69.9052 36.72C69.7052 35.68 69.6052 34.66 69.6052 33.66V14.1H67.5652V12H69.6052V3.72L75.6052 2.88ZM89.7248 -2.86102e-06V16.56C90.3248 15.48 90.9248 14.62 91.5248 13.98C92.1648 13.3 92.8048 12.8 93.4448 12.48C94.0848 12.16 94.6848 11.96 95.2448 11.88C95.8448 11.76 96.4048 11.7 96.9248 11.7C98.7248 11.7 100.165 12.04 101.245 12.72C102.365 13.4 103.205 14.28 103.765 15.36C104.325 16.4 104.685 17.56 104.845 18.84C105.045 20.12 105.145 21.36 105.145 22.56C105.145 23.88 105.085 25.48 104.965 27.36C104.885 29.24 104.845 31.06 104.845 32.82C104.845 33.22 104.865 33.7 104.905 34.26C104.945 34.82 105.065 35.36 105.265 35.88C105.465 36.4 105.765 36.86 106.165 37.26C106.565 37.62 107.145 37.8 107.905 37.8C108.185 37.8 108.525 37.78 108.925 37.74C109.325 37.66 109.625 37.52 109.825 37.32V37.74C109.825 38.82 109.685 39.66 109.405 40.26C109.125 40.86 108.785 41.32 108.385 41.64C107.985 41.96 107.545 42.16 107.065 42.24C106.585 42.32 106.165 42.36 105.805 42.36C104.565 42.36 103.505 42.12 102.625 41.64C101.745 41.12 101.005 40.44 100.405 39.6C99.8448 38.76 99.4248 37.8 99.1448 36.72C98.9048 35.6 98.7848 34.42 98.7848 33.18C98.7848 32.82 98.7848 32.16 98.7848 31.2C98.8248 30.2 98.8448 29.14 98.8448 28.02C98.8848 26.9 98.9048 25.84 98.9048 24.84C98.9448 23.84 98.9648 23.14 98.9648 22.74C98.9648 21.46 98.8648 20.4 98.6648 19.56C98.4648 18.72 98.1848 18.06 97.8248 17.58C97.4648 17.1 97.0448 16.76 96.5648 16.56C96.1248 16.36 95.6448 16.26 95.1248 16.26C93.8848 16.26 92.8048 16.76 91.8848 17.76C91.0048 18.76 90.2848 20.44 89.7248 22.8V42H83.7248V0.839997L89.7248 -2.86102e-06Z" fill="#33C5F3"/>
<path d="M118.612 12V16.14C119.652 14.22 120.752 13 121.912 12.48C123.072 11.96 124.172 11.7 125.212 11.7C126.252 11.7 127.152 11.84 127.912 12.12C128.712 12.4 129.392 12.78 129.952 13.26C130.512 13.74 130.972 14.3 131.332 14.94C131.732 15.58 132.052 16.28 132.292 17.04C132.852 15.84 133.432 14.9 134.032 14.22C134.632 13.5 135.232 12.96 135.832 12.6C136.432 12.2 137.012 11.96 137.572 11.88C138.172 11.76 138.712 11.7 139.192 11.7C140.992 11.7 142.432 12.04 143.512 12.72C144.632 13.4 145.472 14.28 146.032 15.36C146.592 16.4 146.952 17.56 147.112 18.84C147.312 20.08 147.412 21.28 147.412 22.44C147.412 23.16 147.392 23.96 147.352 24.84C147.312 25.68 147.272 26.56 147.232 27.48C147.192 28.36 147.152 29.26 147.112 30.18C147.072 31.06 147.052 31.88 147.052 32.64C147.052 32.96 147.072 33.42 147.112 34.02C147.152 34.58 147.252 35.14 147.412 35.7C147.572 36.26 147.832 36.76 148.192 37.2C148.552 37.6 149.072 37.8 149.752 37.8C150.672 37.8 151.492 37.28 152.212 36.24C152.972 35.2 153.592 33.54 154.072 31.26H156.292C155.852 33.78 155.292 35.78 154.612 37.26C153.932 38.7 153.212 39.8 152.452 40.56C151.692 41.32 150.932 41.8 150.172 42C149.412 42.24 148.712 42.36 148.072 42.36C146.792 42.36 145.712 42.12 144.832 41.64C143.952 41.12 143.232 40.44 142.672 39.6C142.112 38.76 141.692 37.78 141.412 36.66C141.172 35.54 141.052 34.38 141.052 33.18C141.052 32.82 141.052 32.16 141.052 31.2C141.092 30.2 141.112 29.14 141.112 28.02C141.152 26.9 141.172 25.84 141.172 24.84C141.212 23.84 141.232 23.14 141.232 22.74C141.232 21.46 141.132 20.4 140.932 19.56C140.732 18.72 140.452 18.06 140.092 17.58C139.732 17.1 139.312 16.76 138.832 16.56C138.392 16.36 137.912 16.26 137.392 16.26C136.152 16.26 135.132 16.76 134.332 17.76C133.572 18.76 133.032 20.44 132.712 22.8V42H126.712V21.96C126.712 21.24 126.672 20.54 126.592 19.86C126.552 19.18 126.412 18.58 126.172 18.06C125.932 17.5 125.592 17.06 125.152 16.74C124.712 16.42 124.112 16.26 123.352 16.26C122.072 16.26 121.092 16.8 120.412 17.88C119.772 18.92 119.172 20.56 118.612 22.8V42H112.612V12H118.612ZM176.353 12V32.4C176.353 32.8 176.373 33.3 176.413 33.9C176.453 34.5 176.553 35.1 176.713 35.7C176.913 36.26 177.193 36.76 177.553 37.2C177.913 37.6 178.413 37.8 179.053 37.8C181.013 37.8 182.453 35.62 183.373 31.26H185.593C185.153 33.78 184.593 35.78 183.913 37.26C183.233 38.7 182.513 39.8 181.753 40.56C180.993 41.32 180.213 41.8 179.413 42C178.613 42.24 177.893 42.36 177.253 42.36C176.333 42.36 175.533 42.2 174.853 41.88C174.213 41.56 173.653 41.14 173.173 40.62C172.733 40.1 172.373 39.5 172.093 38.82C171.813 38.14 171.593 37.42 171.433 36.66C170.833 38.22 169.853 39.56 168.493 40.68C167.173 41.8 165.553 42.36 163.633 42.36C162.433 42.36 161.213 42.12 159.973 41.64C158.773 41.16 157.673 40.38 156.673 39.3C155.713 38.18 154.913 36.76 154.273 35.04C153.673 33.28 153.373 31.14 153.373 28.62C153.373 26.78 153.573 24.86 153.973 22.86C154.413 20.86 155.093 19.04 156.013 17.4C156.933 15.76 158.113 14.4 159.553 13.32C160.993 12.24 162.733 11.7 164.773 11.7C165.253 11.7 165.753 11.76 166.273 11.88C166.833 11.96 167.353 12.12 167.833 12.36C168.353 12.6 168.833 12.94 169.273 13.38C169.713 13.78 170.073 14.28 170.353 14.88V12H176.353ZM165.133 37.8C165.733 37.8 166.333 37.64 166.933 37.32C167.573 36.96 168.133 36.5 168.613 35.94C169.133 35.34 169.553 34.64 169.873 33.84C170.193 33.04 170.353 32.18 170.353 31.26V17.58C170.073 16.94 169.633 16.36 169.033 15.84C168.473 15.28 167.733 15 166.813 15C165.533 15 164.433 15.44 163.513 16.32C162.593 17.16 161.853 18.24 161.293 19.56C160.733 20.84 160.313 22.26 160.033 23.82C159.793 25.34 159.673 26.8 159.673 28.2C159.673 31.64 160.133 34.1 161.053 35.58C162.013 37.06 163.373 37.8 165.133 37.8ZM189.334 12V17.04C189.814 16.32 190.274 15.64 190.714 15C191.194 14.36 191.714 13.8 192.274 13.32C192.834 12.84 193.454 12.46 194.134 12.18C194.814 11.86 195.574 11.7 196.414 11.7C197.774 11.7 198.774 12.06 199.414 12.78C200.054 13.46 200.374 14.3 200.374 15.3C200.374 15.9 200.274 16.4 200.074 16.8C199.874 17.2 199.634 17.52 199.354 17.76C199.074 18 198.774 18.18 198.454 18.3C198.134 18.38 197.854 18.42 197.614 18.42C197.254 18.42 196.954 18.34 196.714 18.18C196.514 18.02 196.294 17.86 196.054 17.7C195.854 17.5 195.614 17.32 195.334 17.16C195.054 17 194.694 16.92 194.254 16.92C193.334 16.92 192.454 17.24 191.614 17.88C190.774 18.52 190.014 19.2 189.334 19.92V42H183.334V12H189.334ZM209.49 -2.86102e-06V21.78L219.81 12H225.63L215.61 20.1H216.21C218.01 20.1 219.43 20.4 220.47 21C221.55 21.6 222.37 22.38 222.93 23.34C223.53 24.26 223.91 25.28 224.07 26.4C224.27 27.48 224.37 28.5 224.37 29.46C224.37 29.86 224.35 30.32 224.31 30.84C224.31 31.32 224.29 31.82 224.25 32.34C224.25 32.82 224.23 33.28 224.19 33.72C224.19 34.12 224.19 34.44 224.19 34.68C224.19 34.96 224.21 35.28 224.25 35.64C224.29 36 224.39 36.34 224.55 36.66C224.71 36.98 224.95 37.26 225.27 37.5C225.59 37.7 226.01 37.8 226.53 37.8C227.57 37.8 228.45 37.28 229.17 36.24C229.93 35.2 230.55 33.54 231.03 31.26H233.25C232.77 33.86 232.19 35.9 231.51 37.38C230.83 38.82 230.09 39.92 229.29 40.68C228.53 41.44 227.75 41.9 226.95 42.06C226.19 42.26 225.51 42.36 224.91 42.36C223.71 42.36 222.67 42.18 221.79 41.82C220.95 41.46 220.25 40.98 219.69 40.38C219.17 39.74 218.77 39 218.49 38.16C218.25 37.32 218.13 36.44 218.13 35.52C218.13 35.36 218.13 35.02 218.13 34.5C218.13 33.94 218.13 33.36 218.13 32.76C218.17 32.16 218.19 31.6 218.19 31.08C218.19 30.52 218.19 30.14 218.19 29.94C218.19 27.86 217.81 26.46 217.05 25.74C216.29 25.02 215.41 24.66 214.41 24.66C213.37 24.66 212.43 25 211.59 25.68C210.79 26.36 210.09 27.56 209.49 29.28V42H203.49V0.839997L209.49 -2.86102e-06ZM249.692 19.5C249.692 22.3 248.532 24.64 246.212 26.52C243.932 28.4 240.752 29.56 236.672 30C236.832 31.6 237.112 32.9 237.512 33.9C237.952 34.9 238.472 35.7 239.072 36.3C239.672 36.86 240.352 37.26 241.112 37.5C241.912 37.7 242.732 37.8 243.572 37.8C245.492 37.8 247.292 37.3 248.972 36.3C250.652 35.3 252.012 33.62 253.052 31.26H254.972C254.452 32.74 253.732 34.16 252.812 35.52C251.892 36.84 250.812 38.02 249.572 39.06C248.332 40.06 246.992 40.86 245.552 41.46C244.112 42.06 242.632 42.36 241.112 42.36C239.712 42.36 238.352 42.12 237.032 41.64C235.752 41.16 234.612 40.38 233.612 39.3C232.612 38.18 231.792 36.74 231.152 34.98C230.552 33.22 230.252 31.06 230.252 28.5C230.252 26.82 230.432 25 230.792 23.04C231.192 21.08 231.832 19.26 232.712 17.58C233.632 15.9 234.812 14.5 236.252 13.38C237.732 12.26 239.552 11.7 241.712 11.7C242.712 11.7 243.672 11.82 244.592 12.06C245.552 12.26 246.412 12.66 247.172 13.26C247.932 13.82 248.532 14.6 248.972 15.6C249.452 16.6 249.692 17.9 249.692 19.5ZM236.612 27.66C239.452 27.22 241.692 26.22 243.332 24.66C245.012 23.1 245.852 21.18 245.852 18.9C245.852 17.38 245.592 16.3 245.072 15.66C244.552 14.98 243.812 14.64 242.852 14.64C241.812 14.64 240.892 15.04 240.092 15.84C239.332 16.64 238.692 17.68 238.172 18.96C237.652 20.2 237.252 21.6 236.972 23.16C236.732 24.68 236.612 26.18 236.612 27.66ZM259.062 2.88V12H263.682V14.1H259.062V32.4C259.062 32.88 259.062 33.44 259.062 34.08C259.102 34.68 259.202 35.26 259.362 35.82C259.562 36.38 259.822 36.86 260.142 37.26C260.502 37.62 261.022 37.8 261.702 37.8C262.022 37.8 262.402 37.76 262.842 37.68C263.322 37.6 263.682 37.52 263.922 37.44C263.962 37.64 263.982 37.82 263.982 37.98C264.022 38.14 264.042 38.32 264.042 38.52C264.042 39.2 263.882 39.8 263.562 40.32C263.282 40.8 262.902 41.2 262.422 41.52C261.942 41.8 261.402 42 260.802 42.12C260.202 42.28 259.602 42.36 259.002 42.36C257.802 42.36 256.822 42.12 256.062 41.64C255.302 41.12 254.682 40.46 254.202 39.66C253.762 38.82 253.462 37.9 253.302 36.9C253.142 35.9 253.062 34.9 253.062 33.9V14.1H251.022V12H253.062V3.72L259.062 2.88Z" fill="white"/>
</svg>
